<?xml version="1.0" encoding="UTF-8" standalone="no"?>
<!DOCTYPE svg PUBLIC "-//W3C//DTD SVG 1.1//EN"
 "http://www.w3.org/Graphics/SVG/1.1/DTD/svg11.dtd">
<!-- Generated by graphviz version 2.40.1 (20161225.0304)
 -->
<!-- Title: dependencies Pages: 1 -->
<svg width="639pt" height="284pt"
 viewBox="0.00 0.00 639.00 284.00" xmlns="http://www.w3.org/2000/svg" xmlns:xlink="http://www.w3.org/1999/xlink">
<g id="graph0" class="graph" transform="scale(1 1) rotate(0) translate(4 280)">
<title>dependencies</title>
<polygon fill="#ffffff" stroke="transparent" points="-4,4 -4,-280 635,-280 635,4 -4,4"/>
<text text-anchor="start" x="294.5091" y="-42.4" font-family="sans-serif" font-weight="bold" font-size="14.00" fill="#000000">Legend</text>
<polygon fill="#ffffb3" stroke="transparent" points="81.5,-10 81.5,-30 101.5,-30 101.5,-10 81.5,-10"/>
<text text-anchor="start" x="105.129" y="-15.4" font-family="sans-serif" font-size="14.00" fill="#000000"> &#160;Declarations</text>
<polygon fill="#8dd3c7" stroke="transparent" points="194.5,-10 194.5,-30 214.5,-30 214.5,-10 194.5,-10"/>
<text text-anchor="start" x="218.2251" y="-15.4" font-family="sans-serif" font-size="14.00" fill="#000000"> &#160;Module</text>
<polygon fill="#80b1d3" stroke="transparent" points="280.5,-10 280.5,-30 300.5,-30 300.5,-10 280.5,-10"/>
<text text-anchor="start" x="304.2812" y="-15.4" font-family="sans-serif" font-size="14.00" fill="#000000"> &#160;Bootstrap</text>
<polygon fill="#fdb462" stroke="transparent" points="377.5,-10 377.5,-30 397.5,-30 397.5,-10 377.5,-10"/>
<text text-anchor="start" x="401.1732" y="-15.4" font-family="sans-serif" font-size="14.00" fill="#000000"> &#160;Providers</text>
<polygon fill="#fb8072" stroke="transparent" points="473.5,-10 473.5,-30 493.5,-30 493.5,-10 473.5,-10"/>
<text text-anchor="start" x="497.2258" y="-15.4" font-family="sans-serif" font-size="14.00" fill="#000000"> &#160;Exports</text>
<g id="clust1" class="cluster">
<title>cluster_ValdemortModule</title>
<polygon fill="none" stroke="#000000" stroke-dasharray="1,5" points="8,-70 8,-268 623,-268 623,-70 8,-70"/>
</g>
<g id="clust2" class="cluster">
<title>cluster_ValdemortModule_declarations</title>
<polygon fill="none" stroke="#000000" points="21,-78 21,-130 609,-130 609,-78 21,-78"/>
</g>
<g id="clust7" class="cluster">
<title>cluster_ValdemortModule_exports</title>
<polygon fill="none" stroke="#000000" points="16,-208 16,-260 615,-260 615,-208 16,-208"/>
</g>
<!-- DefaultValidationErrorsDirective -->
<g id="node1" class="node">
<title>DefaultValidationErrorsDirective</title>
<polygon fill="#ffffb3" stroke="#000000" points="601.1376,-122 396.8624,-122 396.8624,-86 601.1376,-86 601.1376,-122"/>
<text text-anchor="middle" x="499" y="-99.8" font-family="Times,serif" font-size="14.00" fill="#000000">DefaultValidationErrorsDirective</text>
</g>
<!-- ValdemortModule -->
<g id="node4" class="node">
<title>ValdemortModule</title>
<polygon fill="#8dd3c7" stroke="#000000" points="360.9187,-187 357.9187,-191 336.9187,-191 333.9187,-187 241.0813,-187 241.0813,-151 360.9187,-151 360.9187,-187"/>
<text text-anchor="middle" x="301" y="-164.8" font-family="Times,serif" font-size="14.00" fill="#000000">ValdemortModule</text>
</g>
<!-- DefaultValidationErrorsDirective&#45;&gt;ValdemortModule -->
<g id="edge1" class="edge">
<title>DefaultValidationErrorsDirective&#45;&gt;ValdemortModule</title>
<path fill="none" stroke="#000000" d="M533.7729,-122.0225C533.7729,-139.3734 533.7729,-163 533.7729,-163 533.7729,-163 370.9448,-163 370.9448,-163"/>
<polygon fill="#000000" stroke="#000000" points="370.9448,-159.5001 360.9448,-163 370.9448,-166.5001 370.9448,-159.5001"/>
</g>
<!-- ValidationErrorDirective -->
<g id="node2" class="node">
<title>ValidationErrorDirective</title>
<polygon fill="#ffffb3" stroke="#000000" points="379.2157,-122 222.7843,-122 222.7843,-86 379.2157,-86 379.2157,-122"/>
<text text-anchor="middle" x="301" y="-99.8" font-family="Times,serif" font-size="14.00" fill="#000000">ValidationErrorDirective</text>
</g>
<!-- ValidationErrorDirective&#45;&gt;ValdemortModule -->
<g id="edge2" class="edge">
<title>ValidationErrorDirective&#45;&gt;ValdemortModule</title>
<path fill="none" stroke="#000000" d="M301,-122.1061C301,-122.1061 301,-140.991 301,-140.991"/>
<polygon fill="#000000" stroke="#000000" points="297.5001,-140.9909 301,-150.991 304.5001,-140.991 297.5001,-140.9909"/>
</g>
<!-- ValidationErrorsComponent -->
<g id="node3" class="node">
<title>ValidationErrorsComponent</title>
<polygon fill="#ffffb3" stroke="#000000" points="204.9101,-122 29.0899,-122 29.0899,-86 204.9101,-86 204.9101,-122"/>
<text text-anchor="middle" x="117" y="-99.8" font-family="Times,serif" font-size="14.00" fill="#000000">ValidationErrorsComponent</text>
</g>
<!-- ValidationErrorsComponent&#45;&gt;ValdemortModule -->
<g id="edge3" class="edge">
<title>ValidationErrorsComponent&#45;&gt;ValdemortModule</title>
<path fill="none" stroke="#000000" d="M144.7349,-122.0225C144.7349,-139.3734 144.7349,-163 144.7349,-163 144.7349,-163 231.0308,-163 231.0308,-163"/>
<polygon fill="#000000" stroke="#000000" points="231.0308,-166.5001 241.0308,-163 231.0307,-159.5001 231.0308,-166.5001"/>
</g>
<!-- DefaultValidationErrorsDirective  -->
<g id="node5" class="node">
<title>DefaultValidationErrorsDirective </title>
<polygon fill="#fb8072" stroke="#000000" points="606.6379,-252 399.3621,-252 399.3621,-216 606.6379,-216 606.6379,-252"/>
<text text-anchor="middle" x="503" y="-229.8" font-family="Times,serif" font-size="14.00" fill="#000000">DefaultValidationErrorsDirective </text>
</g>
<!-- ValdemortModule&#45;&gt;DefaultValidationErrorsDirective  -->
<g id="edge4" class="edge">
<title>ValdemortModule&#45;&gt;DefaultValidationErrorsDirective </title>
<path fill="none" stroke="#000000" stroke-dasharray="5,2" d="M360.741,-175C408.1399,-175 466.4771,-175 466.4771,-175 466.4771,-175 466.4771,-205.9775 466.4771,-205.9775"/>
<polygon fill="#000000" stroke="#000000" points="462.9772,-205.9774 466.4771,-215.9775 469.9772,-205.9775 462.9772,-205.9774"/>
</g>
<!-- ValidationErrorDirective  -->
<g id="node6" class="node">
<title>ValidationErrorDirective </title>
<polygon fill="#fb8072" stroke="#000000" points="381.2155,-252 220.7845,-252 220.7845,-216 381.2155,-216 381.2155,-252"/>
<text text-anchor="middle" x="301" y="-229.8" font-family="Times,serif" font-size="14.00" fill="#000000">ValidationErrorDirective </text>
</g>
<!-- ValdemortModule&#45;&gt;ValidationErrorDirective  -->
<g id="edge5" class="edge">
<title>ValdemortModule&#45;&gt;ValidationErrorDirective </title>
<path fill="none" stroke="#000000" stroke-dasharray="5,2" d="M301,-187.1061C301,-187.1061 301,-205.991 301,-205.991"/>
<polygon fill="#000000" stroke="#000000" points="297.5001,-205.9909 301,-215.991 304.5001,-205.991 297.5001,-205.9909"/>
</g>
<!-- ValidationErrorsComponent  -->
<g id="node7" class="node">
<title>ValidationErrorsComponent </title>
<polygon fill="#fb8072" stroke="#000000" points="202.4096,-252 23.5904,-252 23.5904,-216 202.4096,-216 202.4096,-252"/>
<text text-anchor="middle" x="113" y="-229.8" font-family="Times,serif" font-size="14.00" fill="#000000">ValidationErrorsComponent </text>
</g>
<!-- ValdemortModule&#45;&gt;ValidationErrorsComponent  -->
<g id="edge6" class="edge">
<title>ValdemortModule&#45;&gt;ValidationErrorsComponent </title>
<path fill="none" stroke="#000000" stroke-dasharray="5,2" d="M241.1087,-175C177.8044,-175 87.0151,-175 87.0151,-175 87.0151,-175 87.0151,-205.9775 87.0151,-205.9775"/>
<polygon fill="#000000" stroke="#000000" points="83.5152,-205.9774 87.0151,-215.9775 90.5152,-205.9775 83.5152,-205.9774"/>
</g>
</g>
</svg>
