<?xml version="1.0" encoding="UTF-8" standalone="no"?>
<!DOCTYPE svg PUBLIC "-//W3C//DTD SVG 1.1//EN"
 "http://www.w3.org/Graphics/SVG/1.1/DTD/svg11.dtd">
<!-- Generated by graphviz version 5.0.0 (20220707.1540)
 -->
<!-- Title: dependencies Pages: 1 -->
<svg width="836pt" height="247pt"
 viewBox="0.00 0.00 836.00 246.80" xmlns="http://www.w3.org/2000/svg" xmlns:xlink="http://www.w3.org/1999/xlink">
<g id="graph0" class="graph" transform="scale(1 1) rotate(0) translate(4 242.8)">
<title>dependencies</title>
<polygon fill="white" stroke="transparent" points="-4,4 -4,-242.8 832,-242.8 832,4 -4,4"/>
<text text-anchor="middle" x="414" y="-8.2" font-family="sans-serif" font-size="14.00">dependencies</text>
<g id="clust1" class="cluster">
<title>cluster_ValdemortModule</title>
<polygon fill="none" stroke="black" stroke-dasharray="1,5" points="8,-32.8 8,-230.8 820,-230.8 820,-32.8 8,-32.8"/>
</g>
<g id="clust2" class="cluster">
<title>cluster_ValdemortModule_declarations</title>
<polygon fill="none" stroke="black" points="25,-40.8 25,-92.8 806,-92.8 806,-40.8 25,-40.8"/>
</g>
<g id="clust8" class="cluster">
<title>cluster_ValdemortModule_exports</title>
<polygon fill="none" stroke="black" points="16,-170.8 16,-222.8 812,-222.8 812,-170.8 16,-170.8"/>
</g>
<!-- DefaultValidationErrorsDirective -->
<g id="node1" class="node">
<title>DefaultValidationErrorsDirective</title>
<polygon fill="#ffffb3" stroke="black" points="798.15,-84.8 593.85,-84.8 593.85,-48.8 798.15,-48.8 798.15,-84.8"/>
<text text-anchor="middle" x="696" y="-62.6" font-family="Times,serif" font-size="14.00">DefaultValidationErrorsDirective</text>
</g>
<!-- ValdemortModule -->
<g id="node5" class="node">
<title>ValdemortModule</title>
<polygon fill="#8dd3c7" stroke="black" points="375.92,-149.8 372.92,-153.8 351.92,-153.8 348.92,-149.8 256.08,-149.8 256.08,-113.8 375.92,-113.8 375.92,-149.8"/>
<text text-anchor="middle" x="316" y="-127.6" font-family="Times,serif" font-size="14.00">ValdemortModule</text>
</g>
<!-- DefaultValidationErrorsDirective&#45;&gt;ValdemortModule -->
<g id="edge1" class="edge">
<title>DefaultValidationErrorsDirective&#45;&gt;ValdemortModule</title>
<path fill="none" stroke="black" d="M730.77,-85.07C730.77,-103.36 730.77,-128.8 730.77,-128.8 730.77,-128.8 385.87,-128.8 385.87,-128.8"/>
<polygon fill="black" stroke="black" points="385.87,-125.3 375.87,-128.8 385.87,-132.3 385.87,-125.3"/>
</g>
<!-- ValidationErrorDirective -->
<g id="node2" class="node">
<title>ValidationErrorDirective</title>
<polygon fill="#ffffb3" stroke="black" points="576.22,-84.8 419.78,-84.8 419.78,-48.8 576.22,-48.8 576.22,-84.8"/>
<text text-anchor="middle" x="498" y="-62.6" font-family="Times,serif" font-size="14.00">ValidationErrorDirective</text>
</g>
<!-- ValidationErrorDirective&#45;&gt;ValdemortModule -->
<g id="edge2" class="edge">
<title>ValidationErrorDirective&#45;&gt;ValdemortModule</title>
<path fill="none" stroke="black" d="M524.12,-84.81C524.12,-100.85 524.12,-121.8 524.12,-121.8 524.12,-121.8 385.92,-121.8 385.92,-121.8"/>
<polygon fill="black" stroke="black" points="385.92,-118.3 375.92,-121.8 385.92,-125.3 385.92,-118.3"/>
</g>
<!-- ValidationErrorsComponent -->
<g id="node3" class="node">
<title>ValidationErrorsComponent</title>
<polygon fill="#ffffb3" stroke="black" points="401.91,-84.8 226.09,-84.8 226.09,-48.8 401.91,-48.8 401.91,-84.8"/>
<text text-anchor="middle" x="314" y="-62.6" font-family="Times,serif" font-size="14.00">ValidationErrorsComponent</text>
</g>
<!-- ValidationErrorsComponent&#45;&gt;ValdemortModule -->
<g id="edge3" class="edge">
<title>ValidationErrorsComponent&#45;&gt;ValdemortModule</title>
<path fill="none" stroke="black" d="M316,-84.91C316,-84.91 316,-103.79 316,-103.79"/>
<polygon fill="black" stroke="black" points="312.5,-103.79 316,-113.79 319.5,-103.79 312.5,-103.79"/>
</g>
<!-- ValidationFallbackDirective -->
<g id="node4" class="node">
<title>ValidationFallbackDirective</title>
<polygon fill="#ffffb3" stroke="black" points="208.89,-84.8 33.11,-84.8 33.11,-48.8 208.89,-48.8 208.89,-84.8"/>
<text text-anchor="middle" x="121" y="-62.6" font-family="Times,serif" font-size="14.00">ValidationFallbackDirective</text>
</g>
<!-- ValidationFallbackDirective&#45;&gt;ValdemortModule -->
<g id="edge4" class="edge">
<title>ValidationFallbackDirective&#45;&gt;ValdemortModule</title>
<path fill="none" stroke="black" d="M146.06,-84.82C146.06,-102.17 146.06,-125.8 146.06,-125.8 146.06,-125.8 246.09,-125.8 246.09,-125.8"/>
<polygon fill="black" stroke="black" points="246.09,-129.3 256.09,-125.8 246.09,-122.3 246.09,-129.3"/>
</g>
<!-- DefaultValidationErrorsDirective  -->
<g id="node6" class="node">
<title>DefaultValidationErrorsDirective </title>
<polygon fill="#fb8072" stroke="black" points="803.65,-214.8 596.35,-214.8 596.35,-178.8 803.65,-178.8 803.65,-214.8"/>
<text text-anchor="middle" x="700" y="-192.6" font-family="Times,serif" font-size="14.00">DefaultValidationErrorsDirective </text>
</g>
<!-- ValdemortModule&#45;&gt;DefaultValidationErrorsDirective  -->
<g id="edge5" class="edge">
<title>ValdemortModule&#45;&gt;DefaultValidationErrorsDirective </title>
<path fill="none" stroke="black" stroke-dasharray="5,2" d="M375.73,-135.8C475.08,-135.8 663.48,-135.8 663.48,-135.8 663.48,-135.8 663.48,-168.5 663.48,-168.5"/>
<polygon fill="black" stroke="black" points="659.98,-168.5 663.48,-178.5 666.98,-168.5 659.98,-168.5"/>
</g>
<!-- ValidationErrorDirective  -->
<g id="node7" class="node">
<title>ValidationErrorDirective </title>
<polygon fill="#fb8072" stroke="black" points="578.22,-214.8 417.78,-214.8 417.78,-178.8 578.22,-178.8 578.22,-214.8"/>
<text text-anchor="middle" x="498" y="-192.6" font-family="Times,serif" font-size="14.00">ValidationErrorDirective </text>
</g>
<!-- ValdemortModule&#45;&gt;ValidationErrorDirective  -->
<g id="edge6" class="edge">
<title>ValdemortModule&#45;&gt;ValidationErrorDirective </title>
<path fill="none" stroke="black" stroke-dasharray="5,2" d="M375.82,-142.8C419.78,-142.8 471.88,-142.8 471.88,-142.8 471.88,-142.8 471.88,-168.52 471.88,-168.52"/>
<polygon fill="black" stroke="black" points="468.38,-168.52 471.88,-178.52 475.38,-168.52 468.38,-168.52"/>
</g>
<!-- ValidationErrorsComponent  -->
<g id="node8" class="node">
<title>ValidationErrorsComponent </title>
<polygon fill="#fb8072" stroke="black" points="399.41,-214.8 220.59,-214.8 220.59,-178.8 399.41,-178.8 399.41,-214.8"/>
<text text-anchor="middle" x="310" y="-192.6" font-family="Times,serif" font-size="14.00">ValidationErrorsComponent </text>
</g>
<!-- ValdemortModule&#45;&gt;ValidationErrorsComponent  -->
<g id="edge7" class="edge">
<title>ValdemortModule&#45;&gt;ValidationErrorsComponent </title>
<path fill="none" stroke="black" stroke-dasharray="5,2" d="M316,-149.91C316,-149.91 316,-168.79 316,-168.79"/>
<polygon fill="black" stroke="black" points="312.5,-168.79 316,-178.79 319.5,-168.79 312.5,-168.79"/>
</g>
<!-- ValidationFallbackDirective  -->
<g id="node9" class="node">
<title>ValidationFallbackDirective </title>
<polygon fill="#fb8072" stroke="black" points="202.39,-214.8 23.61,-214.8 23.61,-178.8 202.39,-178.8 202.39,-214.8"/>
<text text-anchor="middle" x="113" y="-192.6" font-family="Times,serif" font-size="14.00">ValidationFallbackDirective </text>
</g>
<!-- ValdemortModule&#45;&gt;ValidationFallbackDirective  -->
<g id="edge8" class="edge">
<title>ValdemortModule&#45;&gt;ValidationFallbackDirective </title>
<path fill="none" stroke="black" stroke-dasharray="5,2" d="M256.24,-137.8C189.19,-137.8 89.69,-137.8 89.69,-137.8 89.69,-137.8 89.69,-168.78 89.69,-168.78"/>
<polygon fill="black" stroke="black" points="86.19,-168.78 89.69,-178.78 93.19,-168.78 86.19,-168.78"/>
</g>
</g>
</svg>
