<?xml version="1.0" encoding="UTF-8" standalone="no"?>
<!DOCTYPE svg PUBLIC "-//W3C//DTD SVG 1.1//EN"
 "http://www.w3.org/Graphics/SVG/1.1/DTD/svg11.dtd">
<!-- Generated by graphviz version 2.47.0 (20210316.0004)
 -->
<!-- Title: dependencies Pages: 1 -->
<svg width="836pt" height="284pt"
 viewBox="0.00 0.00 836.00 284.00" xmlns="http://www.w3.org/2000/svg" xmlns:xlink="http://www.w3.org/1999/xlink">
<g id="graph0" class="graph" transform="scale(1 1) rotate(0) translate(4 280)">
<title>dependencies</title>
<polygon fill="white" stroke="transparent" points="-4,4 -4,-280 832,-280 832,4 -4,4"/>
<text text-anchor="start" x="393.01" y="-42.4" font-family="Times-12" font-weight="bold" font-size="14.00">Legend</text>
<polygon fill="#ffffb3" stroke="transparent" points="180,-10 180,-30 200,-30 200,-10 180,-10"/>
<text text-anchor="start" x="203.63" y="-15.4" font-family="Times-12" font-size="14.00"> &#160;Declarations</text>
<polygon fill="#8dd3c7" stroke="transparent" points="293,-10 293,-30 313,-30 313,-10 293,-10"/>
<text text-anchor="start" x="316.73" y="-15.4" font-family="Times-12" font-size="14.00"> &#160;Module</text>
<polygon fill="#80b1d3" stroke="transparent" points="379,-10 379,-30 399,-30 399,-10 379,-10"/>
<text text-anchor="start" x="402.78" y="-15.4" font-family="Times-12" font-size="14.00"> &#160;Bootstrap</text>
<polygon fill="#fdb462" stroke="transparent" points="476,-10 476,-30 496,-30 496,-10 476,-10"/>
<text text-anchor="start" x="499.67" y="-15.4" font-family="Times-12" font-size="14.00"> &#160;Providers</text>
<polygon fill="#fb8072" stroke="transparent" points="572,-10 572,-30 592,-30 592,-10 572,-10"/>
<text text-anchor="start" x="595.73" y="-15.4" font-family="Times-12" font-size="14.00"> &#160;Exports</text>
<g id="clust1" class="cluster">
<title>cluster_ValdemortModule</title>
<polygon fill="none" stroke="black" stroke-dasharray="1,5" points="8,-70 8,-268 820,-268 820,-70 8,-70"/>
</g>
<g id="clust3" class="cluster">
<title>cluster_ValdemortModule_imports</title>
<polygon fill="none" stroke="black" points="25,-78 25,-130 806,-130 806,-78 25,-78"/>
</g>
<g id="clust4" class="cluster">
<title>cluster_ValdemortModule_exports</title>
<polygon fill="none" stroke="black" points="16,-208 16,-260 812,-260 812,-208 16,-208"/>
</g>
<!-- DefaultValidationErrorsDirective -->
<g id="node1" class="node">
<title>DefaultValidationErrorsDirective</title>
<polygon fill="#8dd3c7" stroke="black" points="798.14,-122 795.14,-126 774.14,-126 771.14,-122 593.86,-122 593.86,-86 798.14,-86 798.14,-122"/>
<text text-anchor="middle" x="696" y="-99.8" font-family="Times,serif" font-size="14.00">DefaultValidationErrorsDirective</text>
</g>
<!-- ValdemortModule -->
<g id="node5" class="node">
<title>ValdemortModule</title>
<polygon fill="#8dd3c7" stroke="black" points="375.92,-187 372.92,-191 351.92,-191 348.92,-187 256.08,-187 256.08,-151 375.92,-151 375.92,-187"/>
<text text-anchor="middle" x="316" y="-164.8" font-family="Times,serif" font-size="14.00">ValdemortModule</text>
</g>
<!-- DefaultValidationErrorsDirective&#45;&gt;ValdemortModule -->
<g id="edge1" class="edge">
<title>DefaultValidationErrorsDirective&#45;&gt;ValdemortModule</title>
<path fill="none" stroke="black" d="M730.77,-122.27C730.77,-140.56 730.77,-166 730.77,-166 730.77,-166 385.87,-166 385.87,-166"/>
<polygon fill="black" stroke="black" points="385.87,-162.5 375.87,-166 385.87,-169.5 385.87,-162.5"/>
</g>
<!-- ValidationErrorDirective -->
<g id="node2" class="node">
<title>ValidationErrorDirective</title>
<polygon fill="#8dd3c7" stroke="black" points="576.22,-122 573.22,-126 552.22,-126 549.22,-122 419.78,-122 419.78,-86 576.22,-86 576.22,-122"/>
<text text-anchor="middle" x="498" y="-99.8" font-family="Times,serif" font-size="14.00">ValidationErrorDirective</text>
</g>
<!-- ValidationErrorDirective&#45;&gt;ValdemortModule -->
<g id="edge2" class="edge">
<title>ValidationErrorDirective&#45;&gt;ValdemortModule</title>
<path fill="none" stroke="black" d="M524.12,-122.01C524.12,-138.05 524.12,-159 524.12,-159 524.12,-159 385.92,-159 385.92,-159"/>
<polygon fill="black" stroke="black" points="385.92,-155.5 375.92,-159 385.92,-162.5 385.92,-155.5"/>
</g>
<!-- ValidationErrorsComponent -->
<g id="node3" class="node">
<title>ValidationErrorsComponent</title>
<polygon fill="#8dd3c7" stroke="black" points="401.91,-122 398.91,-126 377.91,-126 374.91,-122 226.09,-122 226.09,-86 401.91,-86 401.91,-122"/>
<text text-anchor="middle" x="314" y="-99.8" font-family="Times,serif" font-size="14.00">ValidationErrorsComponent</text>
</g>
<!-- ValidationErrorsComponent&#45;&gt;ValdemortModule -->
<g id="edge3" class="edge">
<title>ValidationErrorsComponent&#45;&gt;ValdemortModule</title>
<path fill="none" stroke="black" d="M316,-122.11C316,-122.11 316,-140.99 316,-140.99"/>
<polygon fill="black" stroke="black" points="312.5,-140.99 316,-150.99 319.5,-140.99 312.5,-140.99"/>
</g>
<!-- ValidationFallbackDirective -->
<g id="node4" class="node">
<title>ValidationFallbackDirective</title>
<polygon fill="#8dd3c7" stroke="black" points="208.89,-122 205.89,-126 184.89,-126 181.89,-122 33.11,-122 33.11,-86 208.89,-86 208.89,-122"/>
<text text-anchor="middle" x="121" y="-99.8" font-family="Times,serif" font-size="14.00">ValidationFallbackDirective</text>
</g>
<!-- ValidationFallbackDirective&#45;&gt;ValdemortModule -->
<g id="edge4" class="edge">
<title>ValidationFallbackDirective&#45;&gt;ValdemortModule</title>
<path fill="none" stroke="black" d="M146.06,-122.02C146.06,-139.37 146.06,-163 146.06,-163 146.06,-163 246.09,-163 246.09,-163"/>
<polygon fill="black" stroke="black" points="246.09,-166.5 256.09,-163 246.09,-159.5 246.09,-166.5"/>
</g>
<!-- DefaultValidationErrorsDirective  -->
<g id="node6" class="node">
<title>DefaultValidationErrorsDirective </title>
<polygon fill="#fb8072" stroke="black" points="803.64,-252 596.36,-252 596.36,-216 803.64,-216 803.64,-252"/>
<text text-anchor="middle" x="700" y="-229.8" font-family="Times,serif" font-size="14.00">DefaultValidationErrorsDirective </text>
</g>
<!-- ValdemortModule&#45;&gt;DefaultValidationErrorsDirective  -->
<g id="edge5" class="edge">
<title>ValdemortModule&#45;&gt;DefaultValidationErrorsDirective </title>
<path fill="none" stroke="black" stroke-dasharray="5,2" d="M375.73,-173C475.08,-173 663.48,-173 663.48,-173 663.48,-173 663.48,-205.7 663.48,-205.7"/>
<polygon fill="black" stroke="black" points="659.98,-205.7 663.48,-215.7 666.98,-205.7 659.98,-205.7"/>
</g>
<!-- ValidationErrorDirective  -->
<g id="node7" class="node">
<title>ValidationErrorDirective </title>
<polygon fill="#fb8072" stroke="black" points="578.22,-252 417.78,-252 417.78,-216 578.22,-216 578.22,-252"/>
<text text-anchor="middle" x="498" y="-229.8" font-family="Times,serif" font-size="14.00">ValidationErrorDirective </text>
</g>
<!-- ValdemortModule&#45;&gt;ValidationErrorDirective  -->
<g id="edge6" class="edge">
<title>ValdemortModule&#45;&gt;ValidationErrorDirective </title>
<path fill="none" stroke="black" stroke-dasharray="5,2" d="M375.82,-180C419.78,-180 471.88,-180 471.88,-180 471.88,-180 471.88,-205.72 471.88,-205.72"/>
<polygon fill="black" stroke="black" points="468.38,-205.72 471.88,-215.72 475.38,-205.72 468.38,-205.72"/>
</g>
<!-- ValidationErrorsComponent  -->
<g id="node8" class="node">
<title>ValidationErrorsComponent </title>
<polygon fill="#fb8072" stroke="black" points="399.41,-252 220.59,-252 220.59,-216 399.41,-216 399.41,-252"/>
<text text-anchor="middle" x="310" y="-229.8" font-family="Times,serif" font-size="14.00">ValidationErrorsComponent </text>
</g>
<!-- ValdemortModule&#45;&gt;ValidationErrorsComponent  -->
<g id="edge7" class="edge">
<title>ValdemortModule&#45;&gt;ValidationErrorsComponent </title>
<path fill="none" stroke="black" stroke-dasharray="5,2" d="M316,-187.11C316,-187.11 316,-205.99 316,-205.99"/>
<polygon fill="black" stroke="black" points="312.5,-205.99 316,-215.99 319.5,-205.99 312.5,-205.99"/>
</g>
<!-- ValidationFallbackDirective  -->
<g id="node9" class="node">
<title>ValidationFallbackDirective </title>
<polygon fill="#fb8072" stroke="black" points="202.39,-252 23.61,-252 23.61,-216 202.39,-216 202.39,-252"/>
<text text-anchor="middle" x="113" y="-229.8" font-family="Times,serif" font-size="14.00">ValidationFallbackDirective </text>
</g>
<!-- ValdemortModule&#45;&gt;ValidationFallbackDirective  -->
<g id="edge8" class="edge">
<title>ValdemortModule&#45;&gt;ValidationFallbackDirective </title>
<path fill="none" stroke="black" stroke-dasharray="5,2" d="M256.24,-175C189.19,-175 89.69,-175 89.69,-175 89.69,-175 89.69,-205.98 89.69,-205.98"/>
<polygon fill="black" stroke="black" points="86.19,-205.98 89.69,-215.98 93.19,-205.98 86.19,-205.98"/>
</g>
</g>
</svg>
