<?xml version="1.0" encoding="UTF-8" standalone="no"?>
<!DOCTYPE svg PUBLIC "-//W3C//DTD SVG 1.1//EN"
 "http://www.w3.org/Graphics/SVG/1.1/DTD/svg11.dtd">
<!-- Generated by graphviz version 2.47.0 (20210316.0004)
 -->
<!-- Title: dependencies Pages: 1 -->
<svg width="1069pt" height="284pt"
 viewBox="0.00 0.00 1069.00 284.00" xmlns="http://www.w3.org/2000/svg" xmlns:xlink="http://www.w3.org/1999/xlink">
<g id="graph0" class="graph" transform="scale(1 1) rotate(0) translate(4 280)">
<title>dependencies</title>
<polygon fill="white" stroke="transparent" points="-4,4 -4,-280 1065,-280 1065,4 -4,4"/>
<text text-anchor="start" x="509.51" y="-42.4" font-family="Times-12" font-weight="bold" font-size="14.00">Legend</text>
<polygon fill="#ffffb3" stroke="transparent" points="296.5,-10 296.5,-30 316.5,-30 316.5,-10 296.5,-10"/>
<text text-anchor="start" x="320.13" y="-15.4" font-family="Times-12" font-size="14.00"> &#160;Declarations</text>
<polygon fill="#8dd3c7" stroke="transparent" points="409.5,-10 409.5,-30 429.5,-30 429.5,-10 409.5,-10"/>
<text text-anchor="start" x="433.23" y="-15.4" font-family="Times-12" font-size="14.00"> &#160;Module</text>
<polygon fill="#80b1d3" stroke="transparent" points="495.5,-10 495.5,-30 515.5,-30 515.5,-10 495.5,-10"/>
<text text-anchor="start" x="519.28" y="-15.4" font-family="Times-12" font-size="14.00"> &#160;Bootstrap</text>
<polygon fill="#fdb462" stroke="transparent" points="592.5,-10 592.5,-30 612.5,-30 612.5,-10 592.5,-10"/>
<text text-anchor="start" x="616.17" y="-15.4" font-family="Times-12" font-size="14.00"> &#160;Providers</text>
<polygon fill="#fb8072" stroke="transparent" points="688.5,-10 688.5,-30 708.5,-30 708.5,-10 688.5,-10"/>
<text text-anchor="start" x="712.23" y="-15.4" font-family="Times-12" font-size="14.00"> &#160;Exports</text>
<g id="clust1" class="cluster">
<title>cluster_ValdemortModule</title>
<polygon fill="none" stroke="black" stroke-dasharray="1,5" points="8,-70 8,-268 1053,-268 1053,-70 8,-70"/>
</g>
<g id="clust3" class="cluster">
<title>cluster_ValdemortModule_imports</title>
<polygon fill="none" stroke="black" points="25,-78 25,-130 1035,-130 1035,-78 25,-78"/>
</g>
<g id="clust4" class="cluster">
<title>cluster_ValdemortModule_exports</title>
<polygon fill="none" stroke="black" points="16,-208 16,-260 1045,-260 1045,-208 16,-208"/>
</g>
<!-- DefaultValidationErrorsDirective -->
<g id="node1" class="node">
<title>DefaultValidationErrorsDirective</title>
<polygon fill="#8dd3c7" stroke="black" points="1027.14,-122 1024.14,-126 1003.14,-126 1000.14,-122 822.86,-122 822.86,-86 1027.14,-86 1027.14,-122"/>
<text text-anchor="middle" x="925" y="-99.8" font-family="Times,serif" font-size="14.00">DefaultValidationErrorsDirective</text>
</g>
<!-- ValdemortModule -->
<g id="node6" class="node">
<title>ValdemortModule</title>
<polygon fill="#8dd3c7" stroke="black" points="602.92,-187 599.92,-191 578.92,-191 575.92,-187 483.08,-187 483.08,-151 602.92,-151 602.92,-187"/>
<text text-anchor="middle" x="543" y="-164.8" font-family="Times,serif" font-size="14.00">ValdemortModule</text>
</g>
<!-- DefaultValidationErrorsDirective&#45;&gt;ValdemortModule -->
<g id="edge1" class="edge">
<title>DefaultValidationErrorsDirective&#45;&gt;ValdemortModule</title>
<path fill="none" stroke="black" d="M961.11,-122.27C961.11,-140.56 961.11,-166 961.11,-166 961.11,-166 612.9,-166 612.9,-166"/>
<polygon fill="black" stroke="black" points="612.9,-162.5 602.9,-166 612.9,-169.5 612.9,-162.5"/>
</g>
<!-- ValidationErrorDirective -->
<g id="node2" class="node">
<title>ValidationErrorDirective</title>
<polygon fill="#8dd3c7" stroke="black" points="805.22,-122 802.22,-126 781.22,-126 778.22,-122 648.78,-122 648.78,-86 805.22,-86 805.22,-122"/>
<text text-anchor="middle" x="727" y="-99.8" font-family="Times,serif" font-size="14.00">ValidationErrorDirective</text>
</g>
<!-- ValidationErrorDirective&#45;&gt;ValdemortModule -->
<g id="edge2" class="edge">
<title>ValidationErrorDirective&#45;&gt;ValdemortModule</title>
<path fill="none" stroke="black" d="M753.87,-122.01C753.87,-138.05 753.87,-159 753.87,-159 753.87,-159 612.86,-159 612.86,-159"/>
<polygon fill="black" stroke="black" points="612.86,-155.5 602.86,-159 612.86,-162.5 612.86,-155.5"/>
</g>
<!-- ValidationErrorsComponent -->
<g id="node3" class="node">
<title>ValidationErrorsComponent</title>
<polygon fill="#8dd3c7" stroke="black" points="630.91,-122 627.91,-126 606.91,-126 603.91,-122 455.09,-122 455.09,-86 630.91,-86 630.91,-122"/>
<text text-anchor="middle" x="543" y="-99.8" font-family="Times,serif" font-size="14.00">ValidationErrorsComponent</text>
</g>
<!-- ValidationErrorsComponent&#45;&gt;ValdemortModule -->
<g id="edge3" class="edge">
<title>ValidationErrorsComponent&#45;&gt;ValdemortModule</title>
<path fill="none" stroke="black" d="M543,-122.11C543,-122.11 543,-140.99 543,-140.99"/>
<polygon fill="black" stroke="black" points="539.5,-140.99 543,-150.99 546.5,-140.99 539.5,-140.99"/>
</g>
<!-- ValidationFallbackDirective -->
<g id="node4" class="node">
<title>ValidationFallbackDirective</title>
<polygon fill="#8dd3c7" stroke="black" points="437.89,-122 434.89,-126 413.89,-126 410.89,-122 262.11,-122 262.11,-86 437.89,-86 437.89,-122"/>
<text text-anchor="middle" x="350" y="-99.8" font-family="Times,serif" font-size="14.00">ValidationFallbackDirective</text>
</g>
<!-- ValidationFallbackDirective&#45;&gt;ValdemortModule -->
<g id="edge4" class="edge">
<title>ValidationFallbackDirective&#45;&gt;ValdemortModule</title>
<path fill="none" stroke="black" d="M377.73,-122.01C377.73,-138.05 377.73,-159 377.73,-159 377.73,-159 472.87,-159 472.87,-159"/>
<polygon fill="black" stroke="black" points="472.87,-162.5 482.87,-159 472.87,-155.5 472.87,-162.5"/>
</g>
<!-- ValidationSignalErrorsComponent -->
<g id="node5" class="node">
<title>ValidationSignalErrorsComponent</title>
<polygon fill="#8dd3c7" stroke="black" points="244.69,-122 241.69,-126 220.69,-126 217.69,-122 33.31,-122 33.31,-86 244.69,-86 244.69,-122"/>
<text text-anchor="middle" x="139" y="-99.8" font-family="Times,serif" font-size="14.00">ValidationSignalErrorsComponent</text>
</g>
<!-- ValidationSignalErrorsComponent&#45;&gt;ValdemortModule -->
<g id="edge5" class="edge">
<title>ValidationSignalErrorsComponent&#45;&gt;ValdemortModule</title>
<path fill="none" stroke="black" d="M170.03,-122.27C170.03,-140.56 170.03,-166 170.03,-166 170.03,-166 473.08,-166 473.08,-166"/>
<polygon fill="black" stroke="black" points="473.08,-169.5 483.08,-166 473.08,-162.5 473.08,-169.5"/>
</g>
<!-- DefaultValidationErrorsDirective  -->
<g id="node7" class="node">
<title>DefaultValidationErrorsDirective </title>
<polygon fill="#fb8072" stroke="black" points="1036.64,-252 829.36,-252 829.36,-216 1036.64,-216 1036.64,-252"/>
<text text-anchor="middle" x="933" y="-229.8" font-family="Times,serif" font-size="14.00">DefaultValidationErrorsDirective </text>
</g>
<!-- ValdemortModule&#45;&gt;DefaultValidationErrorsDirective  -->
<g id="edge6" class="edge">
<title>ValdemortModule&#45;&gt;DefaultValidationErrorsDirective </title>
<path fill="none" stroke="black" stroke-dasharray="5,2" d="M602.74,-173C703.2,-173 895.14,-173 895.14,-173 895.14,-173 895.14,-205.7 895.14,-205.7"/>
<polygon fill="black" stroke="black" points="891.64,-205.7 895.14,-215.7 898.64,-205.7 891.64,-205.7"/>
</g>
<!-- ValidationErrorDirective  -->
<g id="node8" class="node">
<title>ValidationErrorDirective </title>
<polygon fill="#fb8072" stroke="black" points="811.22,-252 650.78,-252 650.78,-216 811.22,-216 811.22,-252"/>
<text text-anchor="middle" x="731" y="-229.8" font-family="Times,serif" font-size="14.00">ValidationErrorDirective </text>
</g>
<!-- ValdemortModule&#45;&gt;ValidationErrorDirective  -->
<g id="edge7" class="edge">
<title>ValdemortModule&#45;&gt;ValidationErrorDirective </title>
<path fill="none" stroke="black" stroke-dasharray="5,2" d="M602.8,-180C648.03,-180 702.38,-180 702.38,-180 702.38,-180 702.38,-205.72 702.38,-205.72"/>
<polygon fill="black" stroke="black" points="698.88,-205.72 702.38,-215.72 705.88,-205.72 698.88,-205.72"/>
</g>
<!-- ValidationErrorsComponent  -->
<g id="node9" class="node">
<title>ValidationErrorsComponent </title>
<polygon fill="#fb8072" stroke="black" points="632.41,-252 453.59,-252 453.59,-216 632.41,-216 632.41,-252"/>
<text text-anchor="middle" x="543" y="-229.8" font-family="Times,serif" font-size="14.00">ValidationErrorsComponent </text>
</g>
<!-- ValdemortModule&#45;&gt;ValidationErrorsComponent  -->
<g id="edge8" class="edge">
<title>ValdemortModule&#45;&gt;ValidationErrorsComponent </title>
<path fill="none" stroke="black" stroke-dasharray="5,2" d="M543,-187.11C543,-187.11 543,-205.99 543,-205.99"/>
<polygon fill="black" stroke="black" points="539.5,-205.99 543,-215.99 546.5,-205.99 539.5,-205.99"/>
</g>
<!-- ValidationFallbackDirective  -->
<g id="node10" class="node">
<title>ValidationFallbackDirective </title>
<polygon fill="#fb8072" stroke="black" points="435.39,-252 256.61,-252 256.61,-216 435.39,-216 435.39,-252"/>
<text text-anchor="middle" x="346" y="-229.8" font-family="Times,serif" font-size="14.00">ValidationFallbackDirective </text>
</g>
<!-- ValdemortModule&#45;&gt;ValidationFallbackDirective  -->
<g id="edge9" class="edge">
<title>ValdemortModule&#45;&gt;ValidationFallbackDirective </title>
<path fill="none" stroke="black" stroke-dasharray="5,2" d="M483.25,-180C417.2,-180 320.02,-180 320.02,-180 320.02,-180 320.02,-205.72 320.02,-205.72"/>
<polygon fill="black" stroke="black" points="316.52,-205.72 320.02,-215.72 323.52,-205.72 316.52,-205.72"/>
</g>
<!-- ValidationSignalErrorsComponent  -->
<g id="node11" class="node">
<title>ValidationSignalErrorsComponent </title>
<polygon fill="#fb8072" stroke="black" points="238.19,-252 23.81,-252 23.81,-216 238.19,-216 238.19,-252"/>
<text text-anchor="middle" x="131" y="-229.8" font-family="Times,serif" font-size="14.00">ValidationSignalErrorsComponent </text>
</g>
<!-- ValdemortModule&#45;&gt;ValidationSignalErrorsComponent  -->
<g id="edge10" class="edge">
<title>ValdemortModule&#45;&gt;ValidationSignalErrorsComponent </title>
<path fill="none" stroke="black" stroke-dasharray="5,2" d="M483.03,-173C362.37,-173 101.72,-173 101.72,-173 101.72,-173 101.72,-205.7 101.72,-205.7"/>
<polygon fill="black" stroke="black" points="98.22,-205.7 101.72,-215.7 105.22,-205.7 98.22,-205.7"/>
</g>
</g>
</svg>
